<svg viewBox="0 0 1410 215" fill="none" xmlns="http://www.w3.org/2000/svg">
<path d="M0 157.646H33.4709C45.7436 157.646 56.1036 156.373 64.8698 151.759C73.7954 146.827 79.5333 138.714 79.5333 125.191C79.5333 107.69 67.7388 100.69 57.3787 97.6676C65.0292 94.6448 74.5923 87.8038 74.5923 71.7353C74.5923 59.8033 69.6514 52.6441 60.2476 48.3486C53.2347 45.1667 44.4685 43.894 32.5146 43.894H0V157.646ZM13.3884 104.827H35.7023C52.9159 104.827 64.551 109.918 64.551 125.35C64.551 132.35 62.1603 137.6 57.8569 140.941C53.2347 144.6 46.5405 146.032 39.3682 146.032H13.3884V104.827ZM13.3884 55.3487H28.8487C37.6149 55.3487 44.6279 55.826 50.2064 58.2124C55.9442 60.7579 59.4507 65.2125 59.4507 73.9626C59.4507 88.4401 50.8439 93.372 34.1085 93.372H13.3884V55.3487Z" fill="#121212"/>
<path d="M142.485 41.6666C108.536 41.6666 85.4255 65.8489 85.4255 100.849C85.4255 135.85 108.377 159.873 142.645 159.873C177.231 159.873 199.705 135.85 199.705 100.849C199.705 65.6898 176.435 41.6666 142.485 41.6666ZM142.326 52.9623C168.943 52.9623 184.723 72.0535 184.723 100.69C184.723 128.85 168.625 148.578 142.485 148.578C115.709 148.578 99.9296 128.691 99.9296 100.69C99.9296 72.5308 115.709 52.9623 142.326 52.9623Z" fill="#121212"/>
<path d="M207.607 157.646H221.155V109.759H239.484L267.536 157.646H283.953C274.549 142.214 262.595 123.123 253.669 107.85C268.811 105.304 282.677 95.9175 282.677 76.1899C282.677 64.7352 278.374 55.826 269.608 50.2577C261.798 44.6894 251.438 43.894 239.962 43.894H207.607V157.646ZM221.155 55.3487H239.803C247.294 55.3487 253.191 56.4623 257.495 58.5306C264.348 61.7124 268.014 67.4398 268.014 76.8263C268.014 84.9401 265.145 90.1902 259.885 93.8493C255.263 97.0312 248.569 98.6221 239.803 98.6221H221.155V55.3487Z" fill="#121212"/>
<path d="M381.534 157.646V43.894H368.305V109.6C368.305 120.577 368.783 136.486 368.783 142.85H368.465L352.845 114.054L314.114 43.894H293.553V157.646H307.101V101.645C307.101 91.622 306.942 64.7352 306.942 58.5306H307.261C309.014 62.8261 317.621 77.6218 323.996 89.5538L361.93 157.646H381.534Z" fill="#121212"/>
<path d="M404.354 157.646V105.145H455.835V93.372H404.354V55.6669H459.661V43.894H390.806V157.646H404.354Z" fill="#121212"/>
<path d="M468.99 157.646H482.538V43.894H468.99V157.646Z" fill="#121212"/>
<path d="M543.236 99.0994V110.872H588.501C587.704 128.532 575.91 148.418 548.177 148.418C522.516 148.418 506.099 129.804 506.099 100.531C506.099 70.6217 522.994 53.1214 548.496 53.1214C572.244 53.1214 581.17 65.8489 586.748 77.7809H600.296C593.92 57.4169 577.504 41.6666 548.655 41.6666C513.75 41.6666 491.436 66.8034 491.436 100.849C491.436 136.964 514.865 159.873 546.583 159.873C570.172 159.873 583.242 147.464 587.864 139.191L587.704 148.737V157.646H600.296V99.0994H543.236Z" fill="#121212"/>
<path d="M610.591 157.646H624.139V105.145H679.445V157.646H692.993V43.894H679.445V93.5311H624.139V43.894H610.591V157.646Z" fill="#121212"/>
<path d="M733.912 157.646H747.46V55.6669H779.337V43.894H702.035V55.6669H733.912V157.646Z" fill="#121212"/>
<path d="M1359.79 99.2585H1366.01V82.3946H1371.59L1381.47 99.2585H1389.12L1378.28 81.44C1383.86 80.3264 1388 77.1445 1388 69.6671C1388 65.2125 1386.41 61.8715 1383.06 59.6442C1380.51 57.8942 1376.85 57.4169 1371.91 57.4169H1359.79V99.2585ZM1366.01 62.9852H1372.07C1374.78 62.9852 1376.85 63.3034 1378.28 64.0988C1380.35 65.2125 1381.47 67.1216 1381.47 69.8262C1381.47 72.0535 1380.67 73.8035 1379.08 75.0763C1377.49 76.1899 1375.09 76.8263 1372.07 76.8263H1366.01V62.9852ZM1410 78.0991C1410 57.7351 1393.26 41.0303 1372.86 41.0303C1351.82 41.0303 1335.57 57.7351 1335.57 78.0991C1335.57 98.7812 1352.3 115.327 1372.7 115.327C1393.42 115.327 1410 98.7812 1410 78.0991ZM1403.47 78.0991C1403.47 95.2812 1389.6 109.122 1372.7 109.122C1355.65 109.122 1342.26 95.2812 1342.26 78.0991C1342.26 61.0761 1355.65 47.2349 1372.86 47.2349C1389.6 47.2349 1403.47 61.0761 1403.47 78.0991Z" fill="#121212"/>
<path d="M931.755 95.1706C927.622 91.6825 921.013 90.2394 914.486 89.6131C901.008 88.3137 883.333 90.2042 871.951 91.9781C860.568 93.752 839.944 97.0667 825.171 96.5153C822.07 96.452 818.984 96.0761 815.959 95.3935C814.3 95.1339 812.738 94.4421 811.43 93.3875C811.104 93.0479 810.865 92.6821 811.102 91.5844C811.935 89.0192 813.343 86.6779 815.217 84.739C828.789 68.971 844.215 54.8992 861.16 42.8291C879.013 30.0415 897.669 20.188 913.416 16.9017C915.136 16.4938 916.895 16.2704 918.663 16.2351C917.984 17.6405 917.162 18.972 916.21 20.2085C910.785 27.5142 899.916 37.4251 891.351 44.434C890.5 45.1941 889.975 46.2532 889.886 47.3907C889.796 48.5282 890.149 49.6564 890.87 50.5402C891.592 51.424 892.627 51.9954 893.759 52.1353C894.892 52.2751 896.034 51.9727 896.949 51.291C905.49 44.2389 917.197 33.7344 923.309 25.4873C924.799 23.5708 926.049 21.4792 927.032 19.2591C927.57 18.1231 927.874 16.8905 927.925 15.6347C927.977 14.3788 927.776 13.1254 927.333 11.9489C926.703 10.6912 925.754 9.62025 924.582 8.8425C923.41 8.06476 922.054 7.60727 920.65 7.51549C917.619 7.27827 914.57 7.51808 911.613 8.22617C894.042 11.8639 874.25 22.5466 856.011 35.6184C838.506 48.1315 822.576 62.7108 808.564 79.0401C805.74 82.099 803.678 85.7819 802.547 89.7887C802.129 91.5134 802.156 93.3156 802.623 95.0273C803.091 96.7389 803.985 98.3041 805.222 99.5766C807.631 101.856 810.631 103.414 813.881 104.073C817.541 104.918 821.279 105.383 825.034 105.459C840.829 106.051 862.377 102.56 873.606 100.816C884.834 99.0713 901.561 97.2915 913.904 98.5109C920.275 99.1224 924.439 100.436 926.332 102.033C926.618 102.229 926.859 102.485 927.037 102.783C927.216 103.081 927.328 103.413 927.366 103.759C927.323 105.249 926.851 106.695 926.009 107.925C923.883 110.952 921.234 113.576 918.188 115.675C913.074 119.525 907.738 123.07 902.207 126.291C889.163 133.797 872.895 142.075 856.101 150.001C839.307 157.927 822.011 165.078 807.287 170.8C796.523 175.241 785.461 178.923 774.182 181.817L773.606 181.844C774.315 179.865 775.238 177.971 776.358 176.193C778.273 173.075 780.353 170.061 782.589 167.164C793.95 152.553 806.194 138.649 819.253 125.533C819.682 125.123 820.025 124.63 820.26 124.085C820.495 123.54 820.619 122.953 820.623 122.359C820.627 121.765 820.511 121.176 820.283 120.628C820.055 120.08 819.719 119.583 819.295 119.167C818.871 118.751 818.368 118.425 817.815 118.207C817.263 117.989 816.672 117.885 816.078 117.9C815.485 117.916 814.9 118.05 814.359 118.296C813.819 118.542 813.333 118.893 812.931 119.331C799.554 132.757 787.014 146.993 775.382 161.957C772.817 165.426 770.537 168.836 768.743 171.737C767.095 174.359 765.795 177.186 764.878 180.145C764.331 181.632 764.21 183.243 764.53 184.796C764.849 186.348 765.596 187.78 766.686 188.931C767.979 189.893 769.481 190.538 771.069 190.815C772.657 191.091 774.288 190.991 775.831 190.522C787.619 187.529 799.179 183.698 810.422 179.058C825.32 173.262 842.782 165.859 859.732 157.948C876.682 150.037 893.298 141.61 906.462 133.831C912.348 130.43 918.023 126.677 923.456 122.592C927.433 119.792 930.855 116.278 933.55 112.229C935.25 109.426 936.05 106.169 935.842 102.897C935.714 101.4 935.286 99.9454 934.584 98.618C933.882 97.2907 932.92 96.1182 931.755 95.1706Z" fill="#121212"/>
<path fill-rule="evenodd" clip-rule="evenodd" d="M970.201 26.0605C969.991 26.2204 969.78 26.3813 969.566 26.5431C964.335 30.506 957.737 35.1194 950.812 39.7869C947.564 41.9765 944.235 44.1839 940.93 46.3487C948.605 44.0949 956.918 41.7964 965.383 39.5456C967.243 34.4272 968.868 29.8834 970.201 26.0605ZM974.587 37.1312C976.923 30.6333 978.797 25.2622 980.042 21.4294C980.859 18.9172 981.468 16.8794 981.729 15.6086C981.795 15.2865 981.866 14.8841 981.894 14.4753C981.908 14.2757 981.92 13.955 981.878 13.5817C981.849 13.3177 981.74 12.4533 981.113 11.5966C980.753 11.1038 980.191 10.5773 979.389 10.2538C978.586 9.92978 977.813 9.91856 977.205 10.0258C976.15 10.2119 975.469 10.7697 975.264 10.9422C974.76 11.3661 974.413 11.8589 974.259 12.0815C973.867 12.6483 972.898 13.6852 971.172 15.202C969.515 16.6582 967.369 18.3779 964.835 20.298C959.77 24.1349 953.307 28.6567 946.433 33.2901C932.799 42.4804 917.704 52.0047 909.071 57.2932C907.232 58.1387 905.605 58.9894 904.303 59.841C903.104 60.6252 902.251 61.1987 901.807 61.5312L901.806 61.5317C901.72 61.5961 901.495 61.7638 901.278 61.9712C901.214 62.0322 901.101 62.1437 900.975 62.2932L900.973 62.2952C900.892 62.3905 900.582 62.7574 900.347 63.3134C900.19 63.6863 899.378 65.9119 901.269 67.6945C902.014 68.3967 902.825 68.6211 903.26 68.7002C903.714 68.7826 904.084 68.7667 904.284 68.7504C904.907 68.6997 905.393 68.4992 905.428 68.485L905.43 68.4842C905.575 68.428 905.696 68.3719 905.77 68.3371C905.924 68.2641 906.081 68.182 906.215 68.11C907.209 67.5763 909.568 66.1731 912.753 64.225C922.277 59.9286 941.093 54.2217 962.092 48.54C952.888 73.5443 939.919 107.715 928.379 138.121C927.542 140.324 926.714 142.508 925.894 144.667C919.281 162.093 913.286 177.911 908.955 189.512C906.791 195.31 905.037 200.071 903.827 203.46C903.224 205.15 902.746 206.525 902.419 207.527C902.258 208.023 902.119 208.468 902.019 208.832C901.97 209.009 901.916 209.217 901.873 209.428L901.87 209.439C901.85 209.535 901.729 210.096 901.786 210.74C901.867 211.661 902.351 213.365 904.176 214.227C905.642 214.92 906.984 214.545 907.432 214.402C908.464 214.072 909.397 213.401 909.981 212.957C911.346 211.917 913.061 210.307 914.799 208.572C918.333 205.044 922.498 200.45 925.251 197.305C926.675 195.676 926.51 193.202 924.882 191.777C923.254 190.352 920.779 190.517 919.354 192.145C917.918 193.787 916.102 195.816 914.211 197.86C914.852 196.127 915.548 194.254 916.295 192.252C920.617 180.675 926.604 164.878 933.219 147.447C934.041 145.281 934.872 143.091 935.711 140.88C948.059 108.348 962.067 71.4389 971.342 46.0744C993.662 40.2098 1016.88 34.6827 1032.56 31.1457C1034.67 30.6696 1035.99 28.5727 1035.52 26.4622C1035.04 24.3517 1032.94 23.0269 1030.83 23.503C1016.31 26.7798 995.352 31.7546 974.587 37.1312ZM906.473 67.8255C906.472 67.8256 906.479 67.8207 906.493 67.8102C906.48 67.8201 906.473 67.8254 906.473 67.8255ZM980.733 16.4963C980.733 16.4972 980.724 16.5104 980.706 16.5333C980.724 16.5069 980.733 16.4955 980.733 16.4963Z" fill="#121212"/>
<path fill-rule="evenodd" clip-rule="evenodd" d="M1014.9 31.5579C1016.89 32.3949 1017.83 34.6907 1016.99 36.6857C1015.55 40.1357 1013.05 45.2307 1010.06 51.3474C1008.13 55.3 1005.98 59.6793 1003.78 64.317C998.078 76.304 991.789 90.3673 986.959 104.474C982.11 118.635 978.833 132.552 978.946 144.312C979.059 156.024 982.494 164.948 990.372 170.299C990.965 170.701 991.499 170.815 992.152 170.729C992.915 170.628 994.009 170.219 995.463 169.203C998.415 167.142 1001.93 163.239 1005.89 157.646C1013.74 146.547 1022.45 130.1 1031.16 112.588C1034.52 105.827 1037.89 98.8973 1041.2 92.0942C1046.38 81.4296 1051.42 71.0761 1056.04 62.1716C1059.84 54.8557 1063.44 48.3713 1066.7 43.3578C1068.34 40.8511 1069.93 38.6442 1071.46 36.8592C1072.96 35.121 1074.59 33.5577 1076.34 32.5837C1078.23 31.531 1080.62 32.2098 1081.67 34.0999C1082.72 35.99 1082.04 38.3757 1080.15 39.4284C1079.59 39.7417 1078.67 40.498 1077.4 41.9701C1076.18 43.3954 1074.79 45.2897 1073.27 47.6335C1070.22 52.3209 1066.76 58.5348 1062.99 65.7826C1058.4 74.6221 1053.47 84.7824 1048.33 95.3526C1045.01 102.172 1041.61 109.162 1038.17 116.078C1029.47 133.562 1020.53 150.517 1012.28 162.171C1008.19 167.955 1004.04 172.768 999.949 175.627C997.881 177.072 995.606 178.175 993.18 178.496C990.645 178.831 988.173 178.277 985.97 176.78C975.163 169.44 971.238 157.512 971.111 144.387C970.986 131.31 974.592 116.405 979.547 101.936C984.52 87.4117 990.956 73.0363 996.701 60.9529C999.05 56.0108 1001.26 51.5062 1003.2 47.5307C1006.08 41.6478 1008.4 36.9236 1009.77 33.6548C1010.61 31.6597 1012.9 30.7209 1014.9 31.5579Z" fill="#121212"/>
<path fill-rule="evenodd" clip-rule="evenodd" d="M1127.79 3.34899C1129.48 4.69872 1129.76 7.16362 1128.41 8.8545C1125.36 12.6761 1121.49 18.0318 1117.03 24.8275C1122.22 24.3939 1127.39 24.4278 1132.32 24.9535C1138.04 25.563 1145.29 26.7109 1152.2 28.9592C1159.04 31.1851 1165.99 34.6288 1170.65 40.1122C1175.5 45.8239 1177.54 53.3632 1175.1 62.7631C1172.73 71.9087 1166.17 82.7518 1154.2 95.7712C1118.63 134.456 1076.75 166.594 1047.34 183.728C1046.26 186.119 1045.25 188.36 1044.32 190.402C1043.47 192.267 1041.33 193.163 1039.41 192.459C1038.05 191.963 1037.13 190.789 1036.9 189.449C1031.37 192.266 1026.43 194.399 1022.27 195.733C1018.97 196.79 1016.12 197.356 1013.7 197.361C1011.3 197.365 1008.89 196.808 1007.07 195.108C1005.21 193.358 1004.67 191.05 1004.69 189.047C1004.72 187.086 1005.27 185.073 1006 183.228C1007.46 179.513 1010.01 175.536 1012.65 172.213C1015.25 168.946 1018.28 165.878 1020.9 164.272C1022.75 163.143 1025.16 163.725 1026.29 165.57C1027.42 167.416 1026.83 169.827 1024.99 170.956C1023.53 171.848 1021.18 174.071 1018.79 177.087C1016.43 180.048 1014.37 183.348 1013.29 186.1C1012.74 187.488 1012.54 188.507 1012.53 189.15C1012.53 189.257 1012.53 189.341 1012.54 189.405C1012.72 189.459 1013.08 189.527 1013.69 189.526C1014.98 189.523 1016.97 189.204 1019.87 188.272C1024.88 186.667 1031.54 183.61 1039.45 179.206C1047.36 152.509 1056.33 128.164 1065.49 106.568C1065.41 106.198 1065.33 105.818 1065.24 105.429C1063.75 98.7052 1061.66 89.247 1060.89 79.7414C1060.03 69.2434 1060.67 57.6172 1066.5 49.4007C1075.14 37.2071 1090.82 29.5052 1106.78 26.2854C1112.88 16.5941 1118.21 9.07648 1122.29 3.9667C1123.64 2.27582 1126.1 1.99927 1127.79 3.34899ZM1100.95 35.8166C1089.11 39.4028 1078.77 45.6386 1072.89 53.9324C1068.77 59.74 1067.86 68.8974 1068.69 79.106C1069.12 84.2862 1069.96 89.4617 1070.88 94.2154C1081.32 70.9214 1091.78 51.2615 1100.95 35.8166ZM1052.91 171.156C1057.09 161.626 1061.54 151.213 1065.31 141.916C1067.99 135.317 1070.34 129.235 1072 124.413C1072.83 122.007 1073.51 119.859 1073.97 118.09C1074.39 116.489 1074.77 114.697 1074.68 113.262C1074.58 111.765 1074.17 109.662 1073.68 107.342C1086.94 76.3922 1100.5 51.3238 1111.59 33.376C1118.37 32.2922 1125.19 32.0725 1131.49 32.7442C1136.93 33.3239 1143.58 34.3954 1149.77 36.4095C1156.03 38.446 1161.38 41.3077 1164.68 45.1856C1167.78 48.8352 1169.35 53.713 1167.52 60.7991C1165.62 68.1395 1160.03 77.8511 1148.43 90.4681C1117.08 124.561 1080.77 153.465 1052.91 171.156ZM1012.36 189.338C1012.36 189.338 1012.37 189.339 1012.37 189.341C1012.36 189.339 1012.36 189.338 1012.36 189.338ZM1012.56 189.559C1012.57 189.573 1012.57 189.582 1012.57 189.582C1012.57 189.583 1012.56 189.576 1012.56 189.559Z" fill="#121212"/>
<path fill-rule="evenodd" clip-rule="evenodd" d="M1205.69 1.92142C1203.22 2.29071 1201.52 4.59222 1201.89 7.06198L1203.38 17.038C1203.75 19.5078 1206.05 21.2105 1208.52 20.8412C1210.99 20.472 1212.69 18.1704 1212.32 15.7007L1210.83 5.72467C1210.46 3.2549 1208.16 1.55213 1205.69 1.92142ZM1208.93 43.4999C1209.84 41.5373 1208.99 39.2082 1207.03 38.2977C1205.07 37.3872 1202.74 38.2401 1201.83 40.2027C1201.3 41.3458 1199.86 44.2885 1197.76 48.621L1197.75 48.6243L1197.75 48.6277C1195.81 52.6221 1193.29 57.7969 1190.37 63.831C1184.32 76.3607 1176.6 92.4901 1168.92 109.101C1161.24 125.704 1153.59 142.825 1147.67 157.327C1144.71 164.576 1142.18 171.209 1140.28 176.818C1138.41 182.352 1137.08 187.139 1136.68 190.596C1136.43 192.745 1137.97 194.689 1140.12 194.938C1142.27 195.187 1144.22 193.647 1144.47 191.498C1144.77 188.919 1145.86 184.797 1147.7 179.324C1149.53 173.927 1152 167.458 1154.93 160.286C1160.78 145.946 1168.37 128.951 1176.03 112.389C1183.68 95.8351 1191.38 79.7502 1197.43 67.2405C1200.27 61.3546 1202.76 56.2362 1204.71 52.2351L1204.71 52.2267C1206.89 47.766 1208.38 44.6953 1208.93 43.4999Z" fill="#121212"/>
<path fill-rule="evenodd" clip-rule="evenodd" d="M1255.21 13.4365C1263.23 8.6947 1271.22 5.67289 1277.95 5.48811C1290.98 5.13027 1306.97 6.30139 1318.65 17.9293C1330.35 29.5719 1336.67 50.6027 1333.37 87.1862C1329.97 124.782 1309.11 150.706 1287.54 167.202C1276.76 175.447 1265.74 181.383 1256.51 185.304C1247.41 189.167 1239.67 191.232 1235.47 191.412C1228.34 191.717 1212.69 191.447 1199.97 184.245C1193.5 180.581 1187.71 175.08 1184.3 166.962C1180.9 158.876 1180.01 148.572 1182.62 135.556C1185.26 122.377 1191.67 108.269 1199.71 94.6035C1201.97 71.1053 1215.29 49.2123 1230.73 33.1608C1238.59 25.0003 1247.1 18.2311 1255.21 13.4365ZM1207.37 97.0526C1224.36 68.7169 1249.04 41.3925 1263.24 27.7451C1264.8 26.2464 1264.85 23.7665 1263.36 22.2062C1261.86 20.6458 1259.38 20.5959 1257.82 22.0946C1246.34 33.1151 1228.21 52.8184 1212.5 74.9654C1217.77 61.4179 1226.49 48.8673 1236.38 38.5937C1243.8 30.8857 1251.76 24.5767 1259.2 20.181C1266.72 15.7326 1273.35 13.452 1278.16 13.32C1290.93 12.9695 1303.92 14.3163 1313.12 23.4819C1322.32 32.6328 1328.8 50.6711 1325.56 86.4817C1322.42 121.28 1303.17 145.389 1282.78 160.978C1272.58 168.776 1262.15 174.395 1253.45 178.092C1244.6 181.849 1237.9 183.466 1235.13 183.584C1228.31 183.876 1214.54 183.494 1203.83 177.427C1198.58 174.456 1194.15 170.169 1191.52 163.924C1188.88 157.647 1187.91 149.013 1190.3 137.096C1191.98 128.722 1195.39 119.724 1199.96 110.522C1200.06 111.215 1200.16 111.908 1200.27 112.602C1200.62 114.738 1202.63 116.186 1204.77 115.837C1206.9 115.488 1208.35 113.475 1208 111.339C1207.22 106.568 1207.04 101.793 1207.37 97.0526Z" fill="#121212"/>
</svg>
