<svg width="937" height="319" viewBox="0 0 937 319" fill="none" xmlns="http://www.w3.org/2000/svg">
<path d="M621.519 138.802L600.205 132.421C583.567 127.312 568.593 122.326 557.774 114.704C546.984 107.104 540.336 96.8875 540.336 81.2721C540.336 68.6104 545.406 57.9706 554.911 50.4878C564.424 42.9982 578.409 38.6494 596.264 38.6494C614.757 38.6494 628.74 42.998 638.731 51.1226C648.72 59.2455 654.764 71.1786 657.312 86.4364L657.362 86.7318H657.661H703.709H704.103L704.061 86.3409C701.282 60.0991 691.015 38.732 673.237 23.929C655.462 9.12867 630.218 0.922852 597.543 0.922852C565.929 0.922852 539.411 9.55627 520.788 24.403C502.16 39.2543 491.448 60.3111 491.448 85.1016C491.448 109.454 500.018 127.104 515.498 140.789C530.959 154.457 553.298 164.155 580.81 172.669L600.844 179.05H600.846C601.776 179.352 602.7 179.652 603.617 179.949C620.166 185.31 634.534 189.965 644.938 197.037C650.419 200.763 654.785 205.151 657.784 210.656C660.782 216.16 662.424 222.802 662.424 231.051C662.424 246.269 656.498 258.931 645.554 267.795C634.601 276.666 618.592 281.758 598.395 281.758C576.504 281.758 560.392 275.715 549.064 265.678C537.734 255.639 531.154 241.572 528.392 225.46L528.342 225.166H528.044H482.422H482.044L482.069 225.543C483.993 254.778 495.759 277.958 515.672 293.824C535.578 309.684 563.591 318.208 597.969 318.208C631.076 318.208 659.194 309.043 679.043 292.864C698.899 276.681 710.459 253.496 710.459 225.519C710.459 200.104 701.677 182.346 686.139 168.978C670.623 155.629 648.39 146.676 621.521 138.802M0.646362 311.898V312.251H1.00001H97.7867C126.8 312.251 156.933 308.315 179.824 295.451C191.274 289.017 200.917 280.346 207.696 268.815C214.475 257.283 218.378 242.912 218.378 225.094C218.378 202.46 211.207 185.991 200.377 174.166C189.814 162.633 175.791 155.541 161.608 151.438C172.611 147.317 183.443 140.248 191.606 129.3C200.024 118.009 205.586 102.615 205.586 82.1231C205.586 55.0004 195.625 36.2611 176.426 24.3259C157.26 12.4116 128.931 7.30547 92.2438 7.30547H1.00001H0.646362V7.65911V311.898ZM263.935 311.898V312.251H264.289H309.484H309.838V311.898V176.089H440.807H441.161V175.735V136.588V136.235H440.807H309.838V47.1596H451.04H451.394V46.8059V7.65911V7.30547H451.04H264.289H263.935V7.65911V311.898ZM799.37 158.736V159.09H799.723H820.189H820.543V158.736V115.262H833.207L859.539 158.919L859.642 159.09H859.842H882.866H883.494L883.169 158.553L855.274 112.578C862.591 110.635 869.097 107.337 873.803 102.06C878.613 96.6661 881.514 89.2379 881.514 79.166C881.514 67.5807 877.207 58.519 868.132 52.9108C859.943 47.7496 850.052 46.4737 838.523 46.4737H799.723H799.37V46.8273V158.736ZM45.6964 174.812H99.4922C121.431 174.812 139.364 177.897 151.803 185.609C164.21 193.302 171.196 205.626 171.196 224.243C171.196 242.861 164.102 255.299 152.748 263.098C141.373 270.912 125.68 274.099 108.446 274.099H45.6964V174.812ZM45.6964 45.883H80.3054C103.128 45.883 122.237 46.9517 135.64 53.0846C142.329 56.145 147.584 60.4621 151.172 66.5326C154.762 72.6067 156.699 80.4648 156.699 90.6333C156.699 108.216 151.397 119.897 141.072 127.204C130.719 134.532 115.249 137.511 94.8021 137.511H45.6964V45.883ZM820.543 64.2013H836.818C844.259 64.2013 850.254 65.2647 854.379 67.8184C858.473 70.3525 860.767 74.3798 860.767 80.4425C860.767 86.9403 858.466 91.1785 854.374 93.8147C850.251 96.471 844.26 97.5347 836.818 97.5347H820.543V64.2013ZM936.09 102.143C936.09 47.4824 891.162 2.64632 836.391 2.64632C779.914 2.64632 736.267 47.4844 736.267 102.143C736.267 157.656 781.195 202.066 835.965 202.066C891.588 202.066 936.09 157.656 936.09 102.143ZM916.196 102.143C916.196 147.054 880.111 183.062 835.965 183.062C791.399 183.062 756.587 147.06 756.587 102.143C756.587 57.6549 791.397 21.6505 836.391 21.6505C880.111 21.6505 916.196 57.6586 916.196 102.143Z" stroke="cyan" stroke-width="0.707299"/>
</svg>
