<svg width="282" height="165" viewBox="0 0 282 165" fill="none" xmlns="http://www.w3.org/2000/svg">
<path fill-rule="evenodd" clip-rule="evenodd" d="M57.6564 58.0897C55.6444 62.1724 51.9926 67.5756 48.8988 71.6861C47.558 73.4675 47.8945 76.0144 49.6502 77.3748C51.406 78.7351 53.9162 78.3938 55.2569 76.6124C58.7784 71.9336 63.4943 64.9997 65.6789 59.8326C66.2319 58.5246 66.7162 57.118 66.9204 55.7646C67.1008 54.5693 67.2113 52.4628 65.8462 50.6702C64.2907 48.6278 61.9724 48.3971 60.4081 48.5635C58.8368 48.7306 57.1316 49.3495 55.3801 50.1824C46.6444 54.3371 37.7097 62.4333 29.9984 71.4211C22.2368 80.4674 15.4155 90.7686 11.0002 99.7281C9.81829 102.126 9.03435 104.514 9.08373 106.772C9.13936 109.316 10.2668 111.512 12.3624 112.877C14.1793 114.06 16.336 114.362 18.177 114.385C20.0987 114.408 22.201 114.129 24.2998 113.703C32.2558 112.088 42.4102 107.868 47.9555 105.564C48.1752 105.473 48.3876 105.384 48.5924 105.299C54.023 103.045 62.1454 100.163 68.3207 99.2843C71.417 98.8439 73.1971 99.042 73.9354 99.3443C73.9291 99.5386 73.8896 99.8789 73.7379 100.407C73.5348 101.113 72.7662 102.539 71.0279 104.726C69.3737 106.807 67.1117 109.247 64.3659 111.944C58.8816 117.33 51.6984 123.515 44.16 129.558C36.6317 135.593 28.8112 141.437 22.0812 146.141C17.1289 149.602 12.8897 152.359 9.82852 154.128C10.27 152.778 10.8688 151.216 11.6012 149.489C14.9593 141.569 20.6982 131.153 24.9997 123.935C26.1427 122.017 25.5369 119.522 23.6464 118.362C21.756 117.203 19.2969 117.817 18.1538 119.735C13.7886 127.06 7.82753 137.849 4.25235 146.281C3.35357 148.401 2.57935 150.433 2.01625 152.263C1.47146 154.034 1.04428 155.866 1.00306 157.506C0.968833 158.868 1.17884 161.799 3.85171 163.305C6.26005 164.662 8.82821 163.728 10.253 163.06C13.8502 161.376 19.8239 157.575 26.6195 152.825C33.4992 148.017 41.4601 142.067 49.1196 135.927C56.769 129.794 64.1798 123.423 69.9301 117.776C72.8016 114.956 75.3171 112.259 77.2547 109.822C79.1083 107.49 80.746 105.017 81.4179 102.679C81.9895 100.691 82.1815 98.571 81.5133 96.5624C80.8047 94.4321 79.3181 92.9901 77.6184 92.1316C74.6012 90.6074 70.6225 90.7607 67.21 91.2461C60.0103 92.2702 51.1327 95.4752 45.5633 97.7868C45.4287 97.8427 45.2917 97.8996 45.1524 97.9574C39.4676 100.318 29.9089 104.287 22.7309 105.744C20.9235 106.11 19.4242 106.283 18.2736 106.268C17.7455 106.262 17.3728 106.217 17.1216 106.169C17.2096 105.652 17.4696 104.75 18.1556 103.358C22.2402 95.0698 28.6689 85.3328 36.0324 76.7505C43.0674 68.551 50.6891 61.7183 57.6564 58.0897ZM59.0293 54.3526C59.0308 54.3513 59.0316 54.3737 59.0268 54.4238C59.0253 54.379 59.0277 54.3539 59.0293 54.3526ZM6.31434 155.911C6.31585 155.909 6.34821 155.899 6.40684 155.891C6.34215 155.91 6.31283 155.914 6.31434 155.911ZM9.00007 157.853C9.00868 157.909 9.00953 157.941 9.0078 157.943C9.00607 157.946 9.00177 157.918 9.00007 157.853Z" fill="white" stroke="#ACA6A6" stroke-width="0.5" stroke-linecap="round" stroke-linejoin="round"/>
<path fill-rule="evenodd" clip-rule="evenodd" d="M86.3492 46.5831C86.3493 46.5855 86.3495 46.5881 86.3496 46.5907C86.3483 46.5731 86.3486 46.5697 86.3492 46.5831ZM85.1969 59.4286C85.1462 59.4873 85.0953 59.5461 85.0443 59.605C85.0916 59.5788 85.1389 59.5526 85.1862 59.5265C85.1898 59.4938 85.1933 59.4612 85.1969 59.4286ZM93.7257 54.8729C93.9508 52.6419 94.1222 50.762 94.2273 49.3194C94.3169 48.0893 94.3774 46.9457 94.3391 46.1745C94.3294 45.9794 94.3068 45.6399 94.2297 45.2658C94.1928 45.0869 94.1117 44.738 93.9323 44.3375C93.8015 44.0454 93.3346 43.0599 92.1864 42.4201C90.6558 41.5671 89.1084 41.928 88.1704 42.4975C87.434 42.9447 87.03 43.5152 86.8949 43.7129C86.5803 44.1733 86.4078 44.6227 86.3447 44.7891C86.345 44.7882 86.345 44.7883 86.3445 44.7895C86.3407 44.7984 86.3113 44.8686 86.2354 45.0104C86.1532 45.1641 86.0367 45.3641 85.879 45.6139C85.5615 46.1166 85.1264 46.7422 84.5725 47.4858C83.4653 48.9722 81.9853 50.794 80.254 52.8277C76.7972 56.8883 72.4706 61.6399 68.4265 65.964C64.9123 69.7215 61.6373 73.1286 59.3727 75.4399C58.4868 76.1574 57.7371 76.8349 57.1599 77.4595C56.6946 77.9631 56.3327 78.3632 56.1099 78.6279C56.0531 78.6953 55.9716 78.7938 55.8885 78.9038C55.8489 78.9562 55.7774 79.0526 55.698 79.1748C55.6973 79.176 55.6961 79.1778 55.6945 79.1802C55.6577 79.2358 55.4094 79.6114 55.2364 80.1332C55.2351 80.137 55.2335 80.1416 55.2317 80.1469C55.1712 80.3265 54.8251 81.3531 55.1974 82.605C55.4424 83.234 56.2785 84.3818 56.8659 84.8485C57.4401 85.159 58.5215 85.4599 58.9945 85.4925C59.8507 85.5001 60.4822 85.2201 60.6268 85.156L60.6341 85.1528C60.87 85.0484 61.0465 84.9426 61.1331 84.8888C61.4118 84.7156 61.6281 84.5309 61.6717 84.4937C61.6738 84.4919 61.6755 84.4904 61.6768 84.4893C62.0894 84.1394 63.0029 83.2332 64.0735 82.1508C64.2764 81.9456 64.491 81.7279 64.7163 81.4986C66.2338 80.3113 68.5206 78.7378 71.5241 76.8455C75.0896 74.5991 79.3979 72.0649 84.0548 69.4285C83.0664 77.8445 81.8545 87.7194 80.6092 97.7366C79.8482 103.858 79.0744 110.036 78.3323 115.96C77.3699 123.642 76.4609 130.899 75.7022 137.057C75.0301 142.512 74.4733 147.127 74.0997 150.43C73.9133 152.078 73.7698 153.424 73.6804 154.392C73.6362 154.871 73.6016 155.296 73.5828 155.633C73.5737 155.797 73.5653 155.991 73.5656 156.184C73.5658 156.278 73.5679 156.422 73.5808 156.589L73.5814 156.598C73.5889 156.698 73.6208 157.121 73.7828 157.614C74.0545 158.441 74.898 160.011 76.8718 160.432C78.4507 160.768 79.6364 160.076 79.9717 159.869C80.7685 159.376 81.3411 158.67 81.5871 158.363C82.2389 157.547 82.9679 156.407 83.6417 155.287C85.0327 152.975 86.6042 150.045 87.6238 148.063C88.6457 146.075 87.8864 143.624 85.9278 142.587C85.0313 142.112 84.0389 142.017 83.1283 142.243C83.2896 140.918 83.4608 139.522 83.6404 138.064C84.3988 131.908 85.3055 124.67 86.2665 116.999C87.0085 111.075 87.7829 104.894 88.5463 98.7523C90.0857 86.3695 91.5794 74.162 92.6634 64.6483C102.939 59.0397 113.579 53.5373 120.853 49.883C122.833 48.8884 123.643 46.4538 122.663 44.4452C121.682 42.4365 119.283 41.6144 117.303 42.609C111.112 45.7194 102.502 50.1572 93.7257 54.8729ZM75.2758 153.364C75.276 153.363 75.2892 153.347 75.3149 153.321C75.2885 153.352 75.2756 153.365 75.2758 153.364Z" fill="white" stroke="#ACA6A6" stroke-width="0.5" stroke-linecap="round" stroke-linejoin="round"/>
<path fill-rule="evenodd" clip-rule="evenodd" d="M146.498 42.4547C148.009 44.0899 147.927 46.6582 146.315 48.1912C146.316 48.191 146.315 48.1914 146.314 48.1923C146.297 48.2126 146.054 48.4893 145.655 49.2919C145.265 50.0751 144.834 51.1372 144.368 52.4917C143.436 55.2005 142.472 58.7651 141.466 62.956C140.237 68.0722 138.999 73.88 137.706 79.9497C136.867 83.8858 136.005 87.9321 135.106 91.9714C132.86 102.07 130.397 112.069 127.616 119.264C126.246 122.81 124.655 126.067 122.726 128.315C121.745 129.459 120.492 130.561 118.915 131.189C117.225 131.86 115.402 131.887 113.645 131.201C106.517 128.419 102.846 122.019 101.132 114.938C99.4256 107.89 99.4607 99.4938 100.207 91.3301C100.96 83.1071 102.467 74.8042 103.893 67.8271C104.491 64.9009 105.06 62.2693 105.557 59.9711C106.277 56.6403 106.846 54.0099 107.131 52.1988C107.48 49.9855 109.532 48.4784 111.713 48.8325C113.894 49.1866 115.38 51.2679 115.031 53.4811C114.714 55.4897 114.058 58.5302 113.284 62.1195C112.793 64.3921 112.255 66.8848 111.726 69.4748C110.322 76.3453 108.885 84.3043 108.173 92.0802C107.456 99.9154 107.51 107.255 108.901 113.002C110.244 118.548 112.644 121.966 116.191 123.492C116.309 123.395 116.477 123.237 116.692 122.986C117.693 121.82 118.882 119.628 120.168 116.301C122.699 109.752 125.049 100.314 127.302 90.1843C128.163 86.3172 129.011 82.3376 129.847 78.4193C131.163 72.2449 132.447 66.2229 133.693 61.0343C134.718 56.7675 135.754 52.901 136.815 49.8174C137.345 48.2758 137.908 46.8513 138.513 45.6343C139.09 44.4757 139.839 43.2252 140.844 42.2696C142.456 40.7367 144.987 40.8195 146.498 42.4547Z" fill="white" stroke="#ACA6A6" stroke-width="0.5" stroke-linecap="round" stroke-linejoin="round"/>
<path fill-rule="evenodd" clip-rule="evenodd" d="M165.773 21.2628C167.775 22.2121 168.638 24.6277 167.703 26.6581C167.001 28.1816 166.2 30.0901 165.332 32.3595C166.748 32.0189 168.163 31.7535 169.562 31.5683C172.58 31.1689 176.509 30.85 180.442 31.1664C184.301 31.4769 188.635 32.4332 192.066 34.9807C195.744 37.7111 197.944 41.9442 197.844 47.6496C197.749 53.0842 195.586 59.7641 191.076 68.0017C182.186 84.2373 171.533 99.2901 161.637 111.197C156.924 116.868 152.317 121.904 148.101 126.04C147.892 127.162 147.693 128.22 147.507 129.199C147.11 131.282 145.198 132.704 143.12 132.46C142.569 132.396 142.055 132.22 141.6 131.956C139.616 133.602 137.788 134.948 136.159 135.954C134.542 136.953 132.98 137.705 131.491 138.071C130.016 138.434 128.16 138.521 126.441 137.527C124.659 136.495 123.874 134.8 123.568 133.426C123.272 132.094 123.333 130.732 123.493 129.577C123.816 127.24 124.696 124.7 125.67 122.573C126.614 120.512 127.882 118.324 129.251 116.935C130.813 115.35 133.345 115.35 134.908 116.935C136.47 118.52 136.47 121.09 134.908 122.674C134.527 123.061 133.731 124.234 132.925 125.994C132.428 127.08 132.02 128.185 131.745 129.175C131.827 129.126 131.912 129.074 131.999 129.021C134.094 127.727 136.76 125.612 139.837 122.778C140.595 108.672 142.114 95.5593 144.037 83.72C144.016 83.6743 143.993 83.6283 143.971 83.5818C143.866 83.362 143.756 83.1325 143.642 82.8931C142.514 80.5327 141.12 77.5583 139.887 74.3563C138.659 71.1684 137.539 67.6236 137.012 64.1038C136.49 60.6146 136.5 56.8262 137.865 53.3628C140.275 47.2504 145.237 42.2226 150.864 38.5768C152.361 37.6068 153.93 36.7184 155.545 35.9209C157.372 30.5085 159.071 26.2264 160.456 23.2204C161.391 21.19 163.772 20.3135 165.773 21.2628ZM151.88 47.8333C148.791 50.4094 146.49 53.3414 145.293 56.3774C144.659 57.9871 144.513 60.1594 144.921 62.8847C145.237 64.9944 145.855 67.2442 146.645 69.5132C148.296 61.4629 150.092 54.1968 151.88 47.8333ZM150.65 111.638C151.055 109.223 151.448 106.802 151.81 104.468C152.475 100.176 153.042 96.1264 153.379 92.919C153.547 91.3208 153.665 89.8722 153.704 88.6797C153.737 87.7025 153.753 86.2714 153.399 85.1167C153.186 84.4246 152.803 83.5203 152.348 82.5269C155.168 65.9354 158.761 52.1052 162.014 41.9004C164.863 40.7705 167.793 39.9879 170.596 39.6169C173.329 39.2554 176.649 39.0036 179.81 39.2579C183.044 39.5181 185.649 40.274 187.342 41.5312C188.789 42.6056 189.902 44.2699 189.845 47.5057C189.784 51.0123 188.322 56.3173 184.082 64.0598C175.472 79.7842 165.125 94.4086 155.521 105.964C153.863 107.96 152.235 109.853 150.65 111.638ZM129.466 130.21C129.466 130.21 129.471 130.209 129.481 130.209C129.471 130.21 129.466 130.211 129.466 130.21Z" fill="white" stroke="#ACA6A6" stroke-width="0.5" stroke-linecap="round" stroke-linejoin="round"/>
<path fill-rule="evenodd" clip-rule="evenodd" d="M204.092 11.0252C206.143 10.1928 208.471 11.205 209.292 13.2861L211.292 18.3591C212.112 20.4402 211.115 22.8021 209.063 23.6345C207.012 24.467 204.684 23.4547 203.864 21.3736L201.864 16.3006C201.044 14.2195 202.041 11.8576 204.092 11.0252ZM209.862 29.0766C212.028 29.5162 213.433 31.6543 213 33.8521C212.863 34.5455 212.477 36.3335 211.919 38.9142C211.426 41.2004 210.797 44.1088 210.089 47.4295C208.568 54.5602 206.651 63.7144 204.814 73.0995C202.974 82.493 201.222 92.0785 200.025 100.082C199.425 104.086 198.972 107.653 198.713 110.579C198.447 113.587 198.415 115.651 198.549 116.785C198.812 119.01 197.248 121.031 195.054 121.298C192.861 121.565 190.869 119.977 190.606 117.752C190.365 115.715 190.474 112.928 190.745 109.854C191.024 106.699 191.503 102.953 192.115 98.864C193.34 90.6817 195.119 80.958 196.967 71.5179C198.817 62.0695 200.744 52.8656 202.27 45.7126C203.013 42.2286 203.655 39.259 204.147 36.981C204.674 34.5419 205.03 32.8958 205.155 32.2603C205.589 30.0624 207.696 28.637 209.862 29.0766Z" fill="white" stroke="#ACA6A6" stroke-width="0.5" stroke-linecap="round" stroke-linejoin="round"/>
<path fill-rule="evenodd" clip-rule="evenodd" d="M264.222 4.35145C272.324 9.36199 278.228 20.1466 281.036 39.5684C283.994 60.0319 276.288 76.4868 267.119 87.9306C262.538 93.6486 257.551 98.1749 253.231 101.419C249.033 104.57 245.13 106.761 242.677 107.472C239.026 108.531 230.605 110.464 222.725 108.169C218.66 106.985 214.658 104.65 211.637 100.481C208.637 96.3404 206.853 90.7337 206.582 83.4311C206.313 76.2079 207.822 68.0954 210.222 60.0215C208.768 48.7135 211.932 37.1238 216.699 27.6025C219.835 21.3398 223.762 15.7597 227.826 11.4661C231.797 7.27023 236.254 3.92674 240.538 2.75657C247.17 0.944996 256.139 -0.64767 264.222 4.35145ZM215.447 72.4592C214.777 76.2451 214.454 79.8412 214.576 83.125C214.804 89.2659 216.27 93.1711 218.083 95.6733C219.874 98.1461 222.247 99.5848 224.932 100.367C230.551 102.003 237.13 100.639 240.479 99.6679C241.526 99.3643 244.498 97.8776 248.472 94.8939C252.323 92.0025 256.805 87.9364 260.912 82.8108C269.118 72.5674 275.662 58.3305 273.12 40.7463C270.428 22.1205 265.082 14.3886 260.059 11.2823C255.017 8.16458 248.986 8.85477 242.618 10.5943C241.174 10.9887 239.3 12.0216 237.181 13.7384C238.676 15.0344 239.038 17.2842 237.946 19.0117C233.89 25.4312 227.803 36.4597 222.844 48.4952C221.184 52.5249 219.675 56.6082 218.414 60.6251C218.804 62.8037 219.413 64.9355 220.266 66.9947C221.121 69.0613 220.164 71.4401 218.127 72.3081C217.243 72.6849 216.3 72.715 215.447 72.4592Z" fill="white" stroke="#ACA6A6" stroke-width="0.5" stroke-linecap="round" stroke-linejoin="round"/>
</svg>
