<svg viewBox="0 0 723 223" xmlns="http://www.w3.org/2000/svg">
<path d="M142.02 163.373C142.02 151.434 139.081 141.241 133.204 132.792C127.327 124.16 119.613 117.272 110.062 112.129C100.695 106.987 90.7767 103.589 80.3077 101.936C88.9401 100.283 97.1133 97.436 104.827 93.3953C112.541 89.1709 118.786 83.6608 123.562 76.8651C128.337 69.8857 130.725 61.7125 130.725 52.3454C130.725 38.3866 124.48 27.642 111.99 20.1116C99.6846 12.3976 82.6953 8.54056 61.0225 8.54056C50.5534 8.54056 40.3598 9.09157 30.4417 10.1936C20.5237 11.2956 10.6056 12.5813 0.6875 14.0506V14.8771C5.64654 16.8975 9.22807 20.1117 11.4321 24.5197C13.6361 28.9277 14.7381 34.1623 14.7381 40.2233V188.719C14.7381 194.78 13.6361 200.106 11.4321 204.698C9.22807 209.106 5.64654 212.32 0.6875 214.341V215.167C11.3403 216.82 21.8093 218.106 32.0948 219.024C42.3802 220.126 53.1248 220.677 64.3285 220.677C89.6747 220.677 108.96 215.351 122.184 204.698C135.408 194.045 142.02 180.27 142.02 163.373ZM44.2169 36.0908C44.2169 29.4787 45.9617 24.336 49.4514 20.6627C52.9411 16.9893 57.992 15.1526 64.604 15.1526C74.7058 15.1526 82.9708 18.826 89.3992 26.1727C96.0113 33.5194 99.3173 43.5293 99.3173 56.2025C99.3173 69.4266 95.6439 79.8038 88.2972 87.3342C81.1342 94.8646 71.0324 98.6298 57.992 98.6298H44.2169V36.0908ZM44.2169 193.127V105.517H57.992C74.3384 105.517 86.9197 110.109 95.7358 119.292C104.552 128.292 108.96 141.149 108.96 157.863C108.96 174.76 105.287 188.352 97.9398 198.637C90.5931 208.923 80.2158 214.065 66.808 214.065C59.4613 214.065 53.8594 212.229 50.0024 208.555C46.1454 204.882 44.2169 199.739 44.2169 193.127Z" fill="#23441A"/>
<path d="M150.782 190.648C150.782 200.015 153.446 207.545 158.772 213.239C164.098 218.932 170.343 221.779 177.506 221.779C184.302 221.779 191.098 219.667 197.893 215.443C204.689 211.218 211.117 205.433 217.178 198.086H217.454C217.454 198.453 217.454 198.821 217.454 199.188C217.454 199.555 217.454 199.923 217.454 200.29C217.638 207.821 219.658 213.331 223.515 216.82C227.556 220.31 232.423 222.055 238.117 222.055C242.708 222.055 247.392 220.769 252.167 218.198C257.126 215.626 260.983 212.412 263.738 208.555L262.912 207.178C259.973 209.565 257.034 210.759 254.096 210.759C251.157 210.759 248.861 209.565 247.208 207.178C245.739 204.79 245.004 201.3 245.004 196.709C245.004 190.464 245.004 183.301 245.004 175.219C245.188 167.138 245.372 158.873 245.555 150.424C245.739 141.975 245.831 133.894 245.831 126.18C246.014 118.282 246.106 111.395 246.106 105.517C246.106 95.7829 242.8 88.2525 236.188 82.9262C229.76 77.4161 220.484 74.6611 208.362 74.6611C200.097 74.6611 191.924 76.2223 183.843 79.3446C175.945 82.467 169.333 86.6914 164.007 92.0177C158.68 97.3441 156.017 103.13 156.017 109.374C156.017 113.231 157.119 116.446 159.323 119.017C161.711 121.405 164.558 122.598 167.864 122.598C171.904 122.598 175.21 121.221 177.782 118.466C180.353 115.711 182.557 112.221 184.394 107.997C186.23 103.772 188.067 99.64 189.904 95.5993C191.924 91.3749 194.22 87.8852 196.791 85.1302C199.546 82.3752 202.944 80.9977 206.985 80.9977C210.658 80.9977 213.505 82.467 215.525 85.4057C217.546 88.3444 218.556 92.4769 218.556 97.8033C218.556 102.028 218.464 107.63 218.28 114.609C218.28 121.588 218.189 129.119 218.005 137.2C202.944 139.771 190.363 143.812 180.261 149.322C170.343 154.649 162.905 160.985 157.945 168.332C153.17 175.495 150.782 182.933 150.782 190.648ZM217.454 194.505C213.23 198.362 209.189 201.208 205.332 203.045C201.475 204.698 197.985 205.525 194.863 205.525C189.904 205.525 186.047 203.596 183.292 199.739C180.72 195.882 179.435 190.464 179.435 183.484C179.435 177.791 180.445 172.189 182.465 166.679C184.486 160.985 188.251 155.934 193.761 151.526C199.454 146.935 207.536 143.537 218.005 141.333C217.821 150.516 217.638 159.791 217.454 169.158C217.454 178.342 217.454 186.791 217.454 194.505Z" fill="#23441A"/>
<path d="M303.428 0H302.326C299.755 2.93869 296.265 5.60187 291.857 7.98956C287.632 10.3772 283.133 12.3058 278.357 13.7751C273.765 15.0608 269.174 15.7955 264.582 15.9791V16.8056C267.704 18.6423 270.276 21.7647 272.296 26.1727C274.316 30.3971 275.327 35.0806 275.327 40.2233V194.229C275.327 204.882 272.112 212.504 265.684 217.096V217.922H313.346V217.096C306.734 212.871 303.428 205.249 303.428 194.229V0Z" fill="#23441A"/>
<path d="M322.453 217.096V217.922H371.767V217.096C368.278 213.973 365.615 210.576 363.778 206.902C362.125 203.229 361.298 199.096 361.298 194.505V108.548C366.808 103.221 372.043 99.5481 377.002 97.5278C382.145 95.3238 386.369 94.2218 389.675 94.2218C394.267 94.2218 397.665 96.0584 399.869 99.7318C402.256 103.221 403.45 107.813 403.45 113.507V194.505C403.45 199.096 402.532 203.229 400.695 206.902C399.042 210.576 396.563 213.973 393.257 217.096V217.922H440.092V217.096C437.153 214.708 434.858 211.494 433.205 207.453C431.735 203.412 431 199.004 431 194.229V103.589C431 94.9564 428.796 87.977 424.388 82.6507C420.164 77.3243 414.287 74.6611 406.756 74.6611C401.43 74.6611 395.92 76.2223 390.226 79.3446C384.716 82.2833 379.39 86.1404 374.247 90.9157C369.104 95.5074 364.696 100.283 361.023 105.242L360.747 104.966C360.931 103.497 361.023 101.477 361.023 98.9053C361.207 96.3339 361.298 93.7626 361.298 91.1912V74.1101H360.472C357.717 77.2325 354.135 79.9875 349.727 82.3752C345.503 84.7628 341.003 86.6914 336.228 88.1607C331.452 89.4464 326.861 90.0892 322.453 90.0892V90.9157C326.31 92.9361 329.156 95.6911 330.993 99.1808C332.83 102.487 333.748 107.17 333.748 113.231V194.229C333.748 199.004 332.646 203.321 330.442 207.178C328.422 211.035 325.759 214.341 322.453 217.096Z" fill="#23441A"/>
<path d="M549.443 179.903L548.065 179.352C544.759 185.964 540.168 191.107 534.29 194.78C528.596 198.27 522.26 200.015 515.281 200.015C507.383 200.015 500.679 197.443 495.169 192.301C489.659 187.158 485.434 180.087 482.496 171.087C479.741 161.903 478.363 151.343 478.363 139.404C478.363 138.486 478.363 137.659 478.363 136.925C478.363 136.19 478.363 135.455 478.363 134.721H550.82V130.037C550.82 119.384 548.984 109.925 545.31 101.66C541.637 93.2116 536.494 86.5995 529.882 81.8242C523.27 77.0488 515.74 74.6611 507.291 74.6611C496.455 74.6611 486.812 78.2426 478.363 85.4057C469.914 92.5687 463.211 102.211 458.252 114.333C453.293 126.272 450.813 139.496 450.813 154.006C450.813 168.516 453.201 180.913 457.976 191.199C462.935 201.3 469.272 209.014 476.986 214.341C484.883 219.483 493.332 222.055 502.332 222.055C512.801 222.055 522.352 218.473 530.984 211.31C539.617 204.147 545.769 193.678 549.443 179.903ZM501.505 81.2732C507.75 81.2732 512.617 85.4057 516.107 93.6707C519.78 101.936 521.709 113.507 521.893 128.384H478.639C479.557 112.405 482.128 100.558 486.353 92.8442C490.761 85.1302 495.812 81.2732 501.505 81.2732Z" fill="#23441A"/>
<path d="M561.391 147.945C561.391 157.863 562.86 167.322 565.799 176.321C568.737 185.137 572.778 193.035 577.921 200.015C583.063 206.81 589.033 212.229 595.828 216.269C602.624 220.126 609.787 222.055 617.318 222.055C625.032 222.055 632.286 220.126 639.082 216.269C645.878 212.412 651.755 206.994 656.714 200.015C661.857 193.035 665.898 185.137 668.836 176.321C671.775 167.322 673.244 157.863 673.244 147.945C673.244 134.721 670.765 122.507 665.806 111.303C661.031 100.099 654.418 91.1912 645.97 84.5792C637.521 77.9671 627.97 74.6611 617.318 74.6611C606.848 74.6611 597.39 78.059 588.941 84.8547C580.676 91.4667 573.972 100.375 568.829 111.578C563.87 122.782 561.391 134.904 561.391 147.945ZM591.971 147.945C591.971 134.721 592.89 123.058 594.726 112.956C596.563 102.854 599.318 94.9564 602.991 89.2627C606.848 83.3853 611.624 80.4466 617.318 80.4466C623.195 80.4466 627.97 83.3853 631.644 89.2627C635.501 94.9564 638.256 102.854 639.909 112.956C641.745 123.058 642.664 134.721 642.664 147.945C642.664 161.169 641.654 172.924 639.633 183.209C637.796 193.494 634.95 201.576 631.093 207.453C627.419 213.331 622.828 216.269 617.318 216.269C611.807 216.269 607.124 213.331 603.267 207.453C599.594 201.576 596.747 193.494 594.726 183.209C592.89 172.924 591.971 161.169 591.971 147.945Z" fill="#23441A"/>
<path d="M703.95 220.126C709.093 220.126 713.409 218.106 716.899 214.065C720.388 209.841 722.133 205.065 722.133 199.739C722.133 193.678 720.388 188.719 716.899 184.862C713.409 180.821 709.093 178.801 703.95 178.801C698.807 178.801 694.491 180.821 691.001 184.862C687.695 188.719 686.042 193.678 686.042 199.739C686.042 205.065 687.695 209.841 691.001 214.065C694.491 218.106 698.807 220.126 703.95 220.126Z" fill="#23441A"/>
</svg>
