<svg width="640" height="553" viewBox="0 0 640 553" fill="none" xmlns="http://www.w3.org/2000/svg">
<path fill-rule="evenodd" clip-rule="evenodd" d="M252.198 48.5557C247.171 50.0272 242.456 51.6007 240.244 52.4888C190.263 72.5488 140.949 93.3243 98.2269 126.148L98.122 126.363L97.9443 126.504C69.2056 149.283 49.0015 188.611 45.2362 234.396L45.2208 234.584L44.9711 235.095C42.8442 275.103 42.8895 314.481 44.2148 354.419C45.0687 380.15 46.8293 405.691 51.1642 426.842C62.9447 484.318 101.188 527.499 147.589 533.436C176.929 535.977 207.912 532.863 236.539 525.967C258.062 520.783 301.773 503.629 342.612 486.467C383.432 469.313 421.242 452.21 430.927 447.171C442.121 441.348 473.362 421.362 499.312 404.434C546.944 368.139 578.794 314.139 588.823 242.597C588.814 232.685 589.594 222.602 590.371 212.536C590.623 209.282 590.874 206.03 591.099 202.786C592.022 189.453 592.496 176.222 590.726 163.353C590.045 158.401 589.611 150.147 589.098 140.381L589.095 140.32C587.051 101.4 584.568 86.1235 572.069 49.2333L572.063 49.2156L572.057 49.1977C566.65 31.0322 551.624 23.0457 541.031 23.0457L540.961 23.0457L540.89 23.0357C539.671 22.8619 538.333 22.8046 536.813 22.8633C539.25 23.1553 541.451 23.621 543.423 24.2121C547.52 25.44 550.632 27.2116 552.79 29.0967C554.923 30.96 556.205 33.0097 556.453 34.8131C557.835 44.8638 551.783 52.6584 543.039 59.8511C539.092 63.0972 529.208 68.4262 518.53 73.2531C507.838 78.087 496.146 82.5096 488.534 83.8752C452.887 90.2694 432.181 91.8238 407.077 89.0951C396.386 87.933 385.32 84.7697 375.749 80.9929C366.36 77.2878 358.343 72.9661 353.496 69.3075C350.52 69.2443 347.938 68.967 346 68.4066C344.943 68.1009 341.702 67.0349 337.09 65.5179C329.515 63.0267 318.242 59.319 306.87 55.7646C297.696 52.897 288.434 50.1214 280.924 48.1389C277.168 47.1473 273.864 46.3578 271.234 45.8543C268.553 45.3408 266.716 45.1553 265.807 45.2803C262.491 45.7365 257.232 47.0819 252.198 48.5557ZM356.939 69.2933C361.674 72.4501 368.548 76.0013 376.483 79.1325C385.935 82.8623 396.824 85.9688 407.293 87.1068C432.132 89.8067 452.629 88.2838 488.18 81.9066C495.533 80.5877 507.033 76.2559 517.707 71.4307C528.396 66.5984 538.052 61.3636 541.768 58.3066C550.412 51.1965 555.702 44.031 554.471 35.0856C554.314 33.9438 553.413 32.2966 551.474 30.603C549.56 28.931 546.711 27.2856 542.849 26.1279C537.875 24.637 531.23 23.9593 522.785 25.0736C518.458 26.0149 513.307 27.2433 507.063 28.7407C500.648 30.2792 494.544 31.8982 489.451 33.4384C484.339 34.9848 480.307 36.4338 478 37.6235C472.006 40.7132 459.519 45.2346 444.917 49.9398C430.287 54.654 413.452 59.5779 398.708 63.4692L398.616 63.4935L398.521 63.5C394.542 63.7703 388.342 64.8339 382.387 65.9244C381.067 66.1662 379.758 66.4095 378.489 66.6452C374.085 67.4637 370.171 68.1912 367.984 68.4471C364.058 68.9065 360.302 69.2039 356.939 69.2933ZM522.44 23.102C517.678 23.736 512.39 24.9194 506.559 26.8049C500.132 28.347 494.002 29.9726 488.872 31.5241C483.753 33.0724 479.568 34.565 477.083 35.8458C471.259 38.8483 458.928 43.3239 444.304 48.0361C429.738 52.7295 412.977 57.6327 398.289 61.5112C394.174 61.8009 387.909 62.88 382.027 63.9571C380.674 64.2048 379.343 64.4523 378.06 64.6906C373.675 65.5054 369.865 66.2133 367.751 66.4607C362.616 67.0616 357.818 67.3767 353.857 67.3139C350.807 67.2655 348.312 66.9934 346.556 66.4853C345.504 66.1811 342.306 65.129 337.742 63.6275C330.204 61.1475 318.94 57.4418 307.467 53.8557C298.284 50.9853 288.988 48.1991 281.435 46.2051C277.659 45.2085 274.305 44.406 271.611 43.89C268.969 43.3841 266.817 43.1225 265.534 43.299C262.058 43.7772 256.674 45.1612 251.636 46.6363C246.589 48.1137 241.801 49.7085 239.499 50.6327C189.458 70.7167 139.832 91.6107 96.8216 124.706L96.6359 124.849L96.5241 125.077C67.4173 148.245 47.0934 187.975 43.2585 234.044L42.9956 234.582L42.9848 234.785C40.8431 274.935 40.8869 314.438 42.2159 354.485C43.0705 380.238 44.8345 405.919 49.2049 427.244C61.0955 485.257 99.8216 529.351 147.355 535.422L147.375 535.425L147.395 535.427C176.99 537.993 208.199 534.851 237.008 527.912C258.719 522.682 302.589 505.456 343.386 488.311C384.202 471.158 422.083 454.027 431.85 448.946C443.159 443.062 474.523 422.993 500.435 406.089L500.466 406.069L500.495 406.047C548.616 369.392 580.728 314.867 590.813 242.805L590.823 242.735L590.823 242.665C590.811 232.817 591.583 222.819 592.361 212.749C592.614 209.481 592.867 206.205 593.094 202.924C594.019 189.566 594.507 176.164 592.708 163.081C592.039 158.224 591.609 150.055 591.092 140.215C589.04 101.141 586.529 85.6802 573.969 48.6087C568.313 29.6381 552.561 21.0809 541.102 21.0458C537.794 20.5866 533.844 20.9139 528.45 21.8902C526.632 22.2193 524.639 22.6243 522.44 23.102Z" fill="#23441A"/>
<path fill-rule="evenodd" clip-rule="evenodd" d="M95.4814 167.958C95.4853 165.327 94.5626 163.406 93.0828 162.39C91.603 161.374 89.4786 161.204 87.0245 162.154C84.5812 163.099 82.0207 165.099 80.0293 168C78.0378 170.901 77.0922 174.01 77.0883 176.629C77.0844 179.261 78.0071 181.182 79.4869 182.198C80.9667 183.213 83.0911 183.384 85.5452 182.434C87.9885 181.489 90.549 179.489 92.5404 176.588C94.5319 173.686 95.4775 170.578 95.4814 167.958ZM94.1894 177.72C98.5689 171.339 98.5802 163.738 94.2147 160.741C89.8491 157.745 82.7599 160.488 78.3804 166.868C74.0008 173.249 73.9895 180.85 78.355 183.847C82.7206 186.843 89.8098 184.1 94.1894 177.72Z" fill="#23441A"/>
</svg>
